<?xml version="1.0" standalone="no"?>
<!DOCTYPE svg PUBLIC "-//W3C//DTD SVG 20010904//EN"
 "http://www.w3.org/TR/2001/REC-SVG-20010904/DTD/svg10.dtd">
<svg version="1.0" xmlns="http://www.w3.org/2000/svg"
 width="1024.000000pt" height="1024.000000pt" viewBox="0 0 1024.000000 1024.000000"
 preserveAspectRatio="xMidYMid meet">
<metadata>
Created by potrace 1.14, written by Peter Selinger 2001-2017
</metadata>
<g transform="translate(0.000000,1024.000000) scale(0.100000,-0.100000)"
fill="#000000" stroke="none">
<path d="M6810 7742 c-41 -2 -79 -7 -84 -12 -6 -6 -20 -10 -32 -10 -29 0 -128
-53 -173 -92 -73 -65 -119 -143 -143 -242 -10 -47 -17 -58 -38 -63 -60 -15
-152 -87 -191 -149 -51 -83 -63 -206 -28 -299 20 -54 20 -57 3 -76 -27 -29
-23 -32 -68 58 -19 36 -92 157 -108 178 -115 148 -235 271 -323 330 -33 22
-61 43 -63 48 -2 4 -10 7 -17 7 -7 0 -15 3 -17 8 -4 8 -43 30 -152 85 -71 35
-200 80 -266 93 -14 3 -45 10 -70 16 -25 5 -63 12 -85 15 -22 3 -67 8 -100 13
-144 18 -381 7 -525 -26 -85 -19 -200 -53 -222 -65 -10 -5 -23 -9 -29 -9 -7 0
-35 -11 -63 -24 -28 -13 -64 -30 -81 -37 -166 -77 -406 -260 -517 -394 -68
-82 -70 -85 -98 -125 -13 -19 -27 -37 -30 -40 -14 -11 -102 -171 -138 -250
-45 -98 -92 -238 -92 -273 0 -13 -3 -27 -7 -31 -4 -3 -8 -12 -9 -19 -1 -7 -9
-53 -18 -103 -37 -211 -40 -458 -6 -669 5 -33 12 -87 16 -120 9 -79 10 -87 17
-105 6 -18 28 -158 33 -213 2 -21 6 -43 10 -49 6 -10 20 -110 31 -223 8 -89 9
-296 1 -415 -7 -104 -45 -286 -73 -347 -8 -17 -15 -34 -15 -38 0 -10 -42 -107
-95 -220 -23 -49 -55 -118 -70 -151 l-29 -61 -35 15 c-94 39 -190 48 -261 25
-223 -74 -350 -333 -296 -603 25 -122 74 -221 159 -319 22 -25 26 -36 16 -42
-7 -4 -16 -6 -20 -3 -4 2 -27 0 -51 -5 -24 -6 -58 -12 -76 -16 -107 -18 -221
-46 -262 -63 -8 -3 -19 -7 -25 -7 -31 -5 -65 -18 -65 -26 0 -5 -9 -9 -20 -9
-11 0 -28 -4 -38 -10 -9 -5 -57 -27 -107 -50 -190 -87 -314 -194 -339 -295
-13 -52 -15 -84 -5 -90 5 -4 9 -15 9 -25 0 -30 74 -114 140 -159 34 -22 66
-39 70 -36 5 3 11 1 15 -5 3 -5 19 -10 34 -10 15 0 31 -3 35 -7 3 -4 14 -8 24
-10 9 -1 55 -13 102 -27 74 -21 139 -35 190 -41 8 -1 51 -9 95 -18 44 -9 98
-19 120 -22 22 -2 63 -9 90 -15 57 -11 105 -18 185 -26 30 -3 62 -8 70 -12 8
-3 32 -7 52 -8 54 -3 139 -13 166 -18 13 -3 53 -8 90 -11 37 -3 85 -7 107 -10
61 -7 144 -15 210 -20 33 -3 80 -7 105 -10 25 -2 86 -7 135 -10 50 -3 101 -8
115 -10 14 -3 77 -7 140 -10 63 -3 122 -8 130 -10 8 -2 105 -7 215 -10 110 -3
274 -8 365 -11 439 -13 1594 -1 1925 21 33 2 103 6 155 9 52 3 113 8 135 11
22 3 72 7 110 10 39 3 86 7 105 9 19 3 73 8 120 11 86 5 138 10 220 20 25 2
74 8 110 11 77 8 105 12 105 14 0 2 16 4 35 5 19 1 55 5 80 9 25 3 68 9 95 12
28 2 61 6 75 9 14 2 48 6 75 9 28 4 75 12 105 18 60 12 71 14 145 23 27 4 53
9 58 12 4 2 22 6 40 9 18 2 43 7 57 10 14 3 48 10 77 14 28 4 56 11 61 14 4 3
19 7 33 10 87 17 227 60 269 83 291 157 231 388 -150 578 -52 26 -122 56 -155
67 -33 10 -69 23 -80 27 -25 11 -161 50 -195 56 -40 8 -95 18 -100 20 -3 0
-27 4 -55 9 -91 13 -90 11 -50 67 61 83 79 147 79 279 0 63 -6 135 -13 160
-29 105 -112 303 -132 316 -5 3 -9 14 -9 25 0 10 -4 19 -9 19 -5 0 -11 8 -15
18 -8 24 -41 80 -60 101 -9 10 -16 21 -16 24 0 7 -51 73 -123 161 -18 21 -34
42 -37 46 -11 17 -176 195 -195 209 -10 9 -54 50 -96 91 -69 68 -211 197 -229
210 -4 3 -15 30 -25 60 -9 30 -28 75 -41 100 -12 25 -32 68 -44 95 -46 106
-97 204 -157 303 -18 29 -33 55 -33 58 0 3 -12 23 -27 43 -32 41 -50 69 -60
91 -4 8 -18 33 -32 55 -52 82 -126 242 -134 291 -3 16 -10 43 -17 59 -11 30
-44 163 -54 220 -3 17 -8 43 -12 58 -7 35 -13 68 -19 125 -5 39 -4 42 19 42
19 0 26 7 31 30 7 31 -11 65 -54 104 -12 11 -21 31 -21 47 0 15 -4 30 -9 34
-6 3 -13 27 -16 53 -4 26 -10 58 -15 72 -27 79 -25 82 43 94 15 3 36 8 47 11
15 5 21 0 26 -19 3 -14 10 -26 15 -26 5 0 9 -6 9 -14 0 -8 26 -41 58 -73 47
-48 70 -63 125 -81 143 -47 297 -16 377 76 l41 46 117 1 c113 1 120 2 194 37
94 45 193 138 230 219 52 109 68 245 43 349 -3 14 -8 38 -10 54 -3 16 -8 32
-12 35 -5 3 -19 28 -33 54 -28 55 -105 132 -167 168 -40 23 -43 28 -58 96 -19
84 -79 185 -139 232 -69 55 -171 99 -261 113 -11 2 -54 2 -95 0z m170 -227
c70 -36 142 -134 128 -176 -2 -7 -15 -14 -28 -16 -98 -15 -183 -153 -130 -211
25 -27 50 -28 81 -3 71 56 181 57 249 3 119 -96 146 -268 61 -399 -83 -128
-220 -166 -361 -99 -30 14 -71 26 -91 26 -40 0 -79 -30 -79 -61 0 -23 18 -61
34 -71 20 -13 -34 -56 -83 -67 -36 -8 -57 -6 -96 6 -65 21 -96 51 -125 121
-31 78 -42 85 -115 76 -33 -3 -71 -11 -85 -16 -14 -5 -36 -12 -50 -15 -13 -2
-29 -8 -35 -12 -5 -5 -26 -11 -45 -15 -34 -6 -47 -9 -99 -20 -45 -10 -41 5 17
53 116 97 222 206 222 228 0 12 -16 38 -35 59 -19 20 -35 44 -36 53 0 9 -2 27
-3 40 -11 103 119 210 167 138 8 -13 34 -32 57 -42 38 -17 45 -18 69 -4 32 18
39 60 15 97 -28 42 -29 158 -3 208 38 72 66 94 174 140 47 20 165 9 225 -21z
m-2079 -49 c14 -3 41 -8 60 -10 19 -3 34 -5 34 -6 0 -1 9 -3 20 -4 37 -5 130
-29 140 -36 6 -4 26 -11 45 -15 19 -4 46 -13 60 -21 14 -7 50 -25 80 -39 116
-55 212 -122 318 -221 40 -38 78 -74 85 -80 39 -34 157 -195 157 -214 0 -5 3
-10 8 -12 4 -1 23 -33 42 -70 l34 -67 -25 -21 c-13 -12 -40 -36 -59 -53 -86
-77 -73 -73 -123 -38 -52 38 -107 50 -126 27 -21 -26 -8 -50 36 -66 59 -22 76
-40 38 -40 -62 0 -85 -59 -40 -105 30 -29 70 -33 103 -9 23 16 232 64 277 64
24 0 35 -17 35 -55 0 -13 5 -25 10 -27 6 -2 12 -13 15 -26 4 -23 4 -23 -52 8
-65 35 -103 38 -128 10 -28 -31 -13 -64 52 -104 32 -20 62 -36 68 -36 23 -1
68 -49 71 -76 7 -61 14 -136 19 -191 34 -375 58 -469 182 -713 35 -69 93 -177
129 -240 221 -385 332 -669 399 -1016 23 -119 30 -203 30 -354 0 -203 -10
-291 -54 -460 -40 -154 -147 -340 -260 -451 -61 -60 -161 -139 -177 -139 -7 0
-14 -4 -14 -9 0 -8 -128 -67 -215 -99 -29 -11 -186 -49 -235 -57 -47 -8 -164
-24 -170 -23 -3 0 -7 -1 -10 -2 -3 -1 -39 -3 -80 -5 -41 -2 -131 -6 -200 -10
-167 -9 -640 -12 -640 -3 0 4 -13 3 -28 -1 -16 -5 -49 -7 -74 -5 -26 2 -118 6
-205 9 -87 4 -178 8 -203 10 -25 1 -88 6 -140 9 -52 4 -108 9 -124 12 -16 4
-45 8 -65 9 -113 10 -225 26 -244 37 -12 6 -23 10 -25 9 -7 -7 -141 22 -136
30 3 5 13 9 23 9 9 0 54 25 100 55 328 217 564 507 680 838 53 151 65 206 77
342 12 136 4 173 -43 194 -59 27 -107 -2 -138 -87 -55 -147 -235 -467 -289
-511 -9 -7 -16 -19 -16 -26 0 -8 -3 -15 -7 -17 -5 -1 -41 -43 -82 -91 -41 -48
-82 -94 -93 -101 -10 -7 -40 -33 -66 -58 -114 -108 -305 -219 -451 -263 -82
-24 -112 -27 -74 -7 20 11 24 12 52 12 21 0 22 19 2 44 -9 11 -10 16 -2 16 6
0 11 7 11 15 0 8 -5 15 -11 15 -5 0 -8 4 -5 9 4 5 -3 7 -14 4 -11 -3 -17 -10
-13 -16 3 -6 1 -7 -6 -3 -6 4 -37 -4 -68 -19 -31 -14 -89 -31 -128 -38 -38 -6
-73 -16 -77 -21 -9 -13 1 -28 13 -21 5 4 9 1 9 -4 0 -29 -74 11 -96 51 -40 71
17 189 187 394 46 55 94 113 107 129 12 17 41 55 64 85 24 30 54 71 67 90 13
19 27 37 31 40 5 3 20 28 35 55 14 28 39 75 56 105 76 139 97 232 60 269 -12
12 -31 21 -43 21 -35 0 -83 -39 -109 -89 -73 -138 -186 -308 -197 -296 -7 7
-32 -15 -32 -28 0 -6 7 -2 15 9 9 12 14 14 15 6 0 -8 -16 -30 -35 -49 -19 -19
-35 -38 -35 -42 0 -3 -16 -24 -35 -46 l-35 -40 4 35 c2 19 21 73 41 120 43
100 52 122 55 135 2 6 13 26 25 45 19 30 76 145 79 160 1 3 7 14 13 25 12 22
97 281 108 330 4 17 9 39 11 50 22 99 29 531 10 640 -3 17 -12 75 -20 130 -8
55 -17 109 -20 120 -2 12 -7 52 -11 90 -3 38 -8 72 -11 76 -2 4 -11 54 -19
111 -8 57 -20 137 -27 178 -16 104 -16 496 0 585 67 362 180 582 422 826 158
158 366 281 600 352 119 37 196 54 265 61 53 5 343 -1 376 -8z m2163 -3333 c3
-10 16 -30 28 -45 13 -14 30 -35 38 -45 8 -10 33 -41 55 -68 47 -59 64 -80 86
-106 9 -11 27 -35 40 -54 13 -19 27 -35 32 -35 4 0 7 -6 7 -13 0 -7 22 -39 48
-72 103 -128 210 -316 266 -466 16 -46 20 -60 33 -129 8 -45 7 -119 -2 -128
-4 -4 -27 -6 -51 -5 -93 3 -285 118 -431 257 l-92 88 5 61 c9 109 10 299 1
367 -12 95 -13 103 -20 125 -3 11 -9 40 -12 65 -3 25 -16 84 -29 133 -14 48
-21 87 -16 87 5 0 11 -8 14 -17z m-4313 -670 c26 -15 29 -23 25 -48 -3 -16 -8
-48 -11 -70 -3 -22 -8 -46 -10 -53 -3 -7 0 -47 6 -88 9 -63 8 -78 -4 -87 -47
-37 -97 -175 -97 -266 l0 -43 -28 24 c-168 138 -222 463 -99 597 55 60 149 74
218 34z m4266 -648 l28 -25 -30 7 c-16 4 -38 6 -47 5 -21 -1 -23 9 -6 26 17
17 23 15 55 -13z m-3964 -92 c-7 -2 -21 -2 -30 0 -10 3 -4 5 12 5 17 0 24 -2
18 -5z m4457 -152 c371 -32 702 -124 925 -259 129 -78 168 -128 127 -165 -17
-16 -132 -70 -132 -63 0 2 -26 -4 -57 -14 -84 -26 -264 -63 -363 -74 -19 -2
-47 -7 -62 -11 -15 -4 -40 -8 -55 -10 -15 -2 -89 -12 -163 -24 -74 -11 -157
-23 -185 -26 -27 -3 -63 -7 -80 -10 -16 -2 -82 -9 -145 -15 -63 -6 -124 -12
-135 -15 -11 -2 -56 -7 -100 -10 -44 -3 -91 -8 -105 -10 -35 -6 -109 -13 -225
-21 -55 -3 -118 -8 -140 -9 -22 -2 -83 -6 -135 -9 -52 -3 -109 -8 -125 -11
-197 -32 -2174 -33 -2495 -1 -19 2 -73 7 -120 10 -47 3 -138 10 -204 16 -65 6
-130 10 -145 10 -14 -1 -28 -1 -31 0 -9 3 -44 7 -180 19 -197 18 -208 19 -292
31 -166 22 -235 31 -290 36 -32 3 -68 8 -80 11 -13 3 -50 7 -83 10 -33 2 -67
7 -75 10 -8 4 -22 7 -30 9 -154 20 -337 56 -444 85 -22 6 -46 12 -55 14 -91
18 -184 68 -189 103 -8 56 171 176 371 247 137 50 368 109 457 119 142 15 188
17 194 8 7 -12 -31 -22 -97 -27 -49 -4 -97 -26 -97 -45 0 -25 78 -38 223 -39
l88 -1 -6 -41 c-5 -30 -3 -39 5 -34 9 5 10 1 5 -15 -6 -18 -4 -22 8 -17 11 4
14 2 10 -9 -3 -7 0 -14 7 -14 6 0 8 -5 4 -12 -6 -10 -4 -10 8 0 14 12 16 10
11 -10 -4 -18 -2 -20 6 -8 10 14 26 7 26 -12 0 -14 63 -39 70 -28 3 5 14 1 25
-10 11 -11 26 -17 35 -14 8 4 15 1 15 -7 0 -7 3 -9 6 -6 4 3 15 2 25 -3 12 -7
20 -7 24 0 4 6 11 8 16 4 5 -3 7 -9 5 -13 -3 -3 3 -7 12 -7 9 0 28 -4 41 -8
17 -6 22 -5 16 4 -5 8 -1 8 16 -1 23 -13 46 -19 79 -20 8 0 25 -5 37 -11 27
-13 61 8 43 26 -5 5 -10 15 -10 20 0 6 8 0 17 -14 12 -17 13 -25 5 -28 -23 -7
-12 -21 16 -20 27 0 140 -18 176 -28 14 -5 16 -3 10 7 -7 12 -5 12 9 0 9 -7
24 -11 32 -7 8 3 15 1 15 -4 0 -12 43 -9 52 5 5 6 8 4 8 -6 0 -13 9 -16 40
-14 22 1 40 -1 40 -6 0 -5 12 -4 26 1 16 7 23 7 19 0 -9 -14 19 -12 33 2 8 8
12 9 12 1 0 -12 18 -12 38 0 7 5 12 3 12 -7 0 -11 10 -15 39 -13 22 0 37 5 35
9 -3 4 -1 8 4 8 6 0 12 -7 16 -15 4 -11 17 -14 50 -11 27 2 47 -1 50 -8 3 -7
7 -8 13 -1 11 14 53 14 53 1 0 -6 8 -2 17 9 13 16 15 17 10 3 -5 -13 -1 -18
13 -18 11 0 20 5 20 11 0 6 7 3 16 -5 19 -19 34 -21 34 -3 0 8 3 8 8 2 9 -14
55 -17 47 -4 -8 12 8 12 21 0 17 -16 49 -17 62 -1 11 13 11 13 7 0 -6 -17 -34
-16 419 -24 237 -5 260 -4 273 12 12 16 13 16 7 0 -6 -16 7 -17 178 -13 206 5
347 13 360 21 4 3 8 0 8 -6 0 -6 5 -8 12 -4 15 9 34 11 177 18 62 3 122 8 133
12 19 6 19 6 1 20 -10 7 -13 14 -7 14 6 0 19 -9 28 -19 14 -16 23 -18 43 -10
13 5 29 7 34 3 5 -3 9 1 10 8 0 9 2 9 5 1 3 -7 18 -9 42 -6 20 3 47 6 60 7 12
1 22 5 22 9 0 4 8 7 18 5 10 -2 16 2 14 11 -2 11 0 12 10 4 15 -13 88 -13 88
-1 0 4 5 8 11 8 5 0 8 -4 5 -9 -4 -5 3 -7 14 -4 16 4 18 8 9 20 -9 11 -9 17 0
26 10 9 11 8 5 -7 -6 -16 -4 -17 17 -11 21 7 22 6 11 -8 -11 -13 -9 -15 13
-13 16 0 23 6 20 14 -3 9 0 10 15 2 24 -13 43 -13 35 0 -3 6 3 10 14 10 12 0
21 5 21 11 0 5 5 7 11 4 6 -4 8 -13 5 -21 -4 -11 -2 -12 14 -4 10 5 39 10 64
10 41 0 45 2 41 23 -4 20 -3 21 9 5 14 -19 46 -24 46 -8 0 6 5 10 11 10 5 0 8
-4 5 -8 -3 -5 23 -3 57 5 61 12 84 15 237 29 95 8 118 17 126 49 8 33 -29 89
-74 111 -40 19 -108 24 -140 10 -19 -8 -27 -4 -57 28 -30 33 -40 38 -70 34
-19 -2 -35 -1 -35 2 0 13 -49 29 -79 25 -31 -4 -31 -4 -12 16 20 21 91 43 101
31 5 -7 157 -11 556 -15 220 -2 242 0 258 16 10 10 16 21 13 24 -12 11 -157
38 -279 51 -37 4 -71 11 -75 16 -8 8 25 6 257 -13z m-630 -63 c0 -4 -9 -8 -20
-8 -11 0 -20 4 -20 8 0 4 9 8 20 8 11 0 20 -4 20 -8z m-106 -124 c3 -8 2 -12
-4 -9 -6 3 -10 10 -10 16 0 14 7 11 14 -7z m33 -6 c-3 -8 -6 -5 -6 6 -1 11 2
17 5 13 3 -3 4 -12 1 -19z m-3787 -38 c0 -5 -5 -10 -11 -10 -5 0 -7 5 -4 10 3
6 8 10 11 10 2 0 4 -4 4 -10z m3860 -15 c-7 -9 -15 -13 -19 -10 -3 3 1 10 9
15 21 14 24 12 10 -5z m-65 -5 c3 -5 1 -10 -4 -10 -6 0 -11 5 -11 10 0 6 2 10
4 10 3 0 8 -4 11 -10z m-95 -33 c0 -4 -6 -2 -14 5 -8 7 -12 17 -9 22 5 8 23
-12 23 -27z m38 13 c7 -11 11 -20 9 -20 -2 0 -12 9 -22 20 -10 11 -14 20 -9
20 5 0 15 -9 22 -20z m89 -12 c-3 -8 -6 -5 -6 6 -1 11 2 17 5 13 3 -3 4 -12 1
-19z m-3780 -20 c-3 -7 -5 -2 -5 12 0 14 2 19 5 13 2 -7 2 -19 0 -25z m3487 6
c3 -8 2 -12 -4 -9 -6 3 -10 10 -10 16 0 14 7 11 14 -7z m-3637 -16 c-3 -8 -6
-5 -6 6 -1 11 2 17 5 13 3 -3 4 -12 1 -19z m98 12 c3 -6 -1 -7 -9 -4 -18 7
-21 14 -7 14 6 0 13 -4 16 -10z m3812 -25 c0 -8 -4 -12 -9 -9 -4 3 -8 -2 -8
-10 0 -8 5 -18 10 -21 6 -3 10 -12 9 -18 0 -15 -32 30 -35 49 -1 8 2 12 7 8 5
-3 9 0 9 5 0 6 4 11 8 11 5 0 9 -7 9 -15z m-3778 -21 c14 -12 -19 -1 -35 12
-18 14 -18 14 6 3 14 -6 27 -13 29 -15z m86 -14 c3 -5 1 -10 -4 -10 -6 0 -11
5 -11 10 0 6 2 10 4 10 3 0 8 -4 11 -10z m142 -5 c8 -9 13 -18 11 -21 -3 -2
-13 5 -23 16 -21 23 -11 27 12 5z m3178 -15 c3 -6 -1 -7 -9 -4 -18 7 -21 14
-7 14 6 0 13 -4 16 -10z m-3031 -8 c2 -4 -4 -8 -14 -8 -10 0 -16 4 -14 8 3 4
9 8 14 8 5 0 11 -4 14 -8z m3326 4 c0 -2 -7 -7 -16 -10 -8 -3 -12 -2 -9 4 6
10 25 14 25 6z m-2920 -16 c0 -5 -4 -10 -10 -10 -5 0 -10 5 -10 10 0 6 5 10
10 10 6 0 10 -4 10 -10z m2743 3 c-7 -2 -19 -2 -25 0 -7 3 -2 5 12 5 14 0 19
-2 13 -5z m-2686 -9 c-3 -3 -12 -4 -19 -1 -8 3 -5 6 6 6 11 1 17 -2 13 -5z
m-457 -24 c0 -5 -5 -10 -11 -10 -5 0 -7 5 -4 10 3 6 8 10 11 10 2 0 4 -4 4
-10z m790 -10 c0 -5 -4 -10 -10 -10 -5 0 -10 5 -10 10 0 6 5 10 10 10 6 0 10
-4 10 -10z m1660 -10 c13 -8 13 -10 -2 -10 -9 0 -20 5 -23 10 -8 13 5 13 25 0z
m164 -21 c-4 -7 -44 0 -44 7 0 2 11 3 24 2 14 -1 23 -5 20 -9z m-1959 -19 c3
-5 -1 -10 -10 -10 -9 0 -13 5 -10 10 3 6 8 10 10 10 2 0 7 -4 10 -10z m335 0
c0 -5 -5 -10 -11 -10 -5 0 -7 5 -4 10 3 6 8 10 11 10 2 0 4 -4 4 -10z m-133
-6 c-3 -3 -12 -4 -19 -1 -8 3 -5 6 6 6 11 1 17 -2 13 -5z m43 2 c0 -3 -4 -8
-10 -11 -5 -3 -10 -1 -10 4 0 6 5 11 10 11 6 0 10 -2 10 -4z m1570 -6 c0 -5
-2 -10 -4 -10 -3 0 -8 5 -11 10 -3 6 -1 10 4 10 6 0 11 -4 11 -10z"/>
<path d="M5014 7306 c-38 -38 -41 -55 -17 -97 21 -36 65 -54 123 -52 25 1 89
-5 143 -13 89 -15 100 -15 122 0 38 25 34 76 -8 118 -43 43 -158 78 -258 78
-67 0 -73 -2 -105 -34z"/>
<path d="M4425 7196 c-134 -33 -351 -192 -385 -281 -27 -70 9 -135 74 -135 29
0 51 14 133 82 72 60 125 94 203 130 58 27 113 59 122 71 36 45 13 107 -48
133 -38 16 -34 16 -99 0z"/>
<path d="M5690 6987 c-18 -9 -27 -25 -33 -57 -24 -122 -145 -142 -292 -49 -71
45 -99 45 -116 2 -13 -35 -13 -36 30 -84 45 -51 125 -94 197 -106 61 -10 170
-10 206 0 71 19 135 118 124 190 -12 76 -70 127 -116 104z"/>
<path d="M4732 6745 c-11 -14 -23 -42 -27 -62 -18 -100 -106 -218 -195 -263
-54 -27 -139 -36 -197 -19 -35 9 -66 30 -115 76 -50 47 -74 63 -96 63 -56 0
-88 -63 -71 -142 16 -72 106 -164 194 -198 84 -32 214 -33 307 -1 203 68 353
259 342 436 -1 22 -3 46 -3 54 -1 7 -16 28 -35 47 -41 41 -77 44 -104 9z"/>
<path d="M5320 6670 c-84 -14 -180 -63 -217 -110 -19 -23 -15 -68 7 -90 14
-14 34 -20 68 -21 113 -2 128 -7 183 -51 25 -20 46 -68 53 -123 4 -27 10 -64
12 -82 3 -17 0 -34 -6 -38 -13 -8 -13 -55 1 -55 5 0 23 14 38 31 25 27 31 29
51 19 12 -6 29 -9 37 -5 14 5 13 8 -5 26 -23 21 -26 30 -42 129 -23 140 -24
131 11 185 55 81 41 151 -35 174 -50 15 -107 19 -156 11z"/>
<path d="M3586 6498 c-27 -15 -50 -76 -35 -94 16 -19 33 -18 52 4 40 44 27
114 -17 90z"/>
<path d="M5031 6314 c-33 -27 -41 -70 -19 -92 22 -22 85 -14 112 13 35 35 41
62 20 86 -25 28 -76 25 -113 -7z"/>
<path d="M5702 6248 c-20 -20 -13 -60 15 -90 45 -48 93 -33 93 29 0 27 -6 37
-32 53 -38 23 -59 25 -76 8z"/>
<path d="M4754 6180 c-22 -22 -52 -58 -69 -81 -16 -22 -42 -54 -56 -72 -24
-30 -109 -170 -109 -180 0 -2 -12 -31 -27 -63 -15 -33 -28 -66 -30 -74 -16
-97 -16 -97 10 -115 34 -22 68 -16 84 15 26 51 53 114 53 123 0 4 7 15 15 23
8 9 18 27 22 42 3 15 19 48 35 73 15 25 28 49 28 53 0 4 11 19 25 34 14 15 25
31 25 37 0 5 16 27 35 47 19 20 35 40 35 43 0 4 11 20 25 37 31 37 32 62 3 82
-36 25 -63 19 -104 -24z"/>
<path d="M5855 6179 c-22 -18 -25 -26 -19 -53 3 -17 16 -42 29 -56 30 -33 91
-130 132 -209 31 -60 65 -101 85 -101 14 0 58 47 58 62 0 19 -28 94 -52 141
-41 83 -136 200 -179 223 -24 12 -30 11 -54 -7z"/>
<path d="M5145 6095 c-33 -32 -32 -70 1 -100 33 -31 39 -31 69 0 31 30 33 77
5 105 -26 26 -46 25 -75 -5z"/>
<path d="M4961 6033 c-20 -17 -101 -193 -101 -219 0 -8 -7 -34 -16 -59 -28
-83 -51 -294 -34 -308 22 -18 57 -37 67 -37 28 0 50 41 57 106 10 93 44 264
61 301 8 17 15 38 15 47 0 10 9 36 20 58 11 23 20 52 20 65 0 25 -32 63 -54
63 -8 0 -23 -8 -35 -17z"/>
<path d="M3371 6006 c-6 -7 -14 -34 -17 -60 -5 -37 -3 -50 11 -66 23 -25 41
-25 55 -1 11 21 14 100 4 125 -7 20 -38 21 -53 2z"/>
<path d="M3390 5715 c-44 -23 -53 -55 -48 -150 5 -70 11 -93 32 -125 14 -22
37 -42 51 -46 31 -8 82 12 95 37 30 54 -8 241 -57 278 -30 24 -39 25 -73 6z"/>
<path d="M3162 3653 c-31 -49 -24 -50 11 -2 16 21 25 39 20 39 -4 -1 -18 -17
-31 -37z"/>
<path d="M3300 2890 c-9 -6 -10 -10 -3 -10 6 0 15 5 18 10 8 12 4 12 -15 0z"/>
<path d="M2918 2773 c6 -2 18 -2 25 0 6 3 1 5 -13 5 -14 0 -19 -2 -12 -5z"/>
<path d="M4419 2758 c-10 -18 -8 -24 11 -40 32 -26 74 -20 78 10 7 47 -67 71
-89 30z"/>
<path d="M4237 2684 c-16 -16 -6 -34 19 -34 19 0 25 5 22 17 -3 19 -29 29 -41
17z"/>
<path d="M4857 2643 c-14 -13 -6 -43 13 -53 47 -25 110 9 81 44 -13 16 -81 23
-94 9z"/>
<path d="M7514 2340 c-28 -11 -62 -60 -70 -98 -10 -50 21 -62 150 -59 96 2
110 4 121 22 34 52 -57 146 -140 144 -22 0 -50 -4 -61 -9z"/>
<path d="M2389 2291 c-61 -44 -85 -79 -95 -138 -5 -34 -3 -43 13 -51 30 -16
419 -18 438 -2 19 16 19 47 0 80 -8 14 -19 35 -24 47 -11 23 -58 62 -108 87
-20 10 -57 16 -101 16 -64 0 -72 -3 -123 -39z"/>
<path d="M8037 2256 c-47 -13 -71 -33 -80 -69 -9 -33 15 -42 118 -42 81 0 100
3 108 17 20 31 -23 87 -78 101 -11 3 -42 0 -68 -7z"/>
<path d="M7197 2105 c-29 -28 -35 -56 -14 -72 13 -11 169 -9 186 1 19 12 12
36 -18 67 -40 40 -113 42 -154 4z"/>
<path d="M6200 2019 c-34 -13 -63 -54 -55 -79 6 -18 15 -20 90 -20 46 0 90 3
99 6 17 6 21 41 8 60 -21 32 -97 50 -142 33z"/>
<path d="M8202 3985 c-17 -8 -45 -27 -61 -42 -33 -31 -65 -99 -51 -108 8 -5
114 -7 205 -4 22 0 73 0 114 -1 42 -1 78 3 84 9 18 18 -17 76 -73 120 -49 39
-55 41 -118 41 -37 -1 -82 -7 -100 -15z"/>
<path d="M1878 3923 c-16 -3 -28 -9 -28 -14 0 -5 -6 -9 -14 -9 -7 0 -21 -12
-31 -26 -26 -41 -3 -53 77 -40 26 5 60 4 75 -1 37 -12 88 -2 88 17 1 46 -88
84 -167 73z"/>
<path d="M8591 3686 c-9 -10 -9 -16 -1 -21 17 -10 37 12 24 25 -8 8 -15 6 -23
-4z"/>
<path d="M2158 3669 c-27 -10 -42 -34 -32 -50 3 -5 39 -9 80 -9 67 0 74 2 74
19 0 42 -62 62 -122 40z"/>
<path d="M1621 3637 c-9 -11 -8 -17 3 -26 18 -15 48 -3 44 18 -4 21 -32 26
-47 8z"/>
<path d="M8110 3630 c0 -23 19 -26 39 -7 11 10 13 10 7 0 -4 -7 -2 -13 3 -13
6 0 11 9 11 20 0 16 -7 20 -30 20 -23 0 -30 -4 -30 -20z"/>
<path d="M7990 3395 c-10 -12 -9 -16 4 -21 24 -9 47 3 40 21 -8 19 -28 19 -44
0z"/>
<path d="M8190 3347 c-31 -15 -40 -56 -13 -59 64 -5 81 -5 106 -1 29 6 37 33
15 50 -23 18 -82 23 -108 10z"/>
<path d="M2068 3129 c-26 -15 -22 -38 8 -45 17 -4 31 -1 41 8 13 13 13 17 -2
32 -19 19 -24 19 -47 5z"/>
<path d="M8314 3114 c-64 -14 -69 -17 -105 -66 -31 -44 -39 -104 -17 -126 8
-8 59 -12 163 -12 134 0 154 2 168 18 21 23 21 50 2 88 -39 79 -123 118 -211
98z"/>
<path d="M1795 3065 c-80 -28 -137 -129 -87 -153 9 -4 76 -5 147 -2 l130 5 3
41 c3 37 -1 44 -38 77 -22 21 -48 37 -58 37 -9 0 -26 2 -37 5 -11 3 -38 -2
-60 -10z"/>
</g>
</svg>
